<svg xmlns="http://www.w3.org/2000/svg" version="1.1" xmlns:xlink="http://www.w3.org/1999/xlink" xmlns:svgjs="http://svgjs.dev/svgjs" width="1500" height="556" viewBox="0 0 1500 556"><g transform="matrix(1,0,0,1,-0.9090909090909918,-0.8265229473536237)"><svg viewBox="0 0 396 147" data-background-color="#ffffff" preserveAspectRatio="xMidYMid meet" height="556" width="1500" xmlns="http://www.w3.org/2000/svg" xmlns:xlink="http://www.w3.org/1999/xlink"><g id="tight-bounds" transform="matrix(1,0,0,1,0.2400000000000091,0.2185231533470926)"><svg viewBox="0 0 395.52 146.56295369330581" height="146.56295369330581" width="395.52"><g><svg viewBox="0 0 395.52 146.56295369330581" height="146.56295369330581" width="395.52"><g><svg viewBox="0 0 662.9293181962785 245.65351679999992" height="146.56295369330581" width="395.52"><g transform="matrix(1,0,0,1,265.4317181962785,54.4180154812923)"><svg viewBox="0 0 397.4975999999999 136.81748583741532" height="136.81748583741532" width="397.4975999999999"><g id="textblocktransform"><svg viewBox="0 0 397.4975999999999 136.81748583741532" height="136.81748583741532" width="397.4975999999999" id="textblock"><g><rect width="397.4975999999999" height="7.555272933378397" x="0" y="92.67914908356231" fill="#0074d9" opacity="1" stroke-width="0" stroke="transparent" fill-opacity="1" class="rect-yte-0" data-fill-palette-color="primary" rx="1%" id="yte-0" data-palette-color="#0074d9"></rect></g><g transform="matrix(1,0,0,1,0.9887999999999693,0)"><svg viewBox="0 0 395.52 83.77895845523697" height="83.77895845523697" width="395.52"><g transform="matrix(1,0,0,1,0,0)"><svg width="395.52" viewBox="2.5 -35.6 170.89 36.2" height="83.77895845523697" data-palette-color="#0074d9"><path d="M17.95 0.6L17.95 0.6Q13.4 0.6 9.9-1.58 6.4-3.75 4.45-7.78 2.5-11.8 2.5-17.35L2.5-17.35Q2.5-22.7 4.48-26.83 6.45-30.95 10.08-33.27 13.7-35.6 18.55-35.6L18.55-35.6Q21.05-35.6 23.1-35.13 25.15-34.65 26.95-33.8L26.95-33.8 25.5-29.8Q23.95-30.55 22.33-31 20.7-31.45 18.5-31.45L18.5-31.45Q15.3-31.45 12.78-29.8 10.25-28.15 8.8-25.05 7.35-21.95 7.35-17.55L7.35-17.55Q7.35-13.35 8.78-10.2 10.2-7.05 12.73-5.3 15.25-3.55 18.5-3.55L18.5-3.55Q20.95-3.55 22.75-4.15 24.55-4.75 26.25-5.7L26.25-5.7 27.7-1.75Q25.85-0.75 23.48-0.08 21.1 0.6 17.95 0.6ZM38.7 0L34.2 0 34.2-35 40.85-35 50.55-12.85 60.1-35 66.9-35 66.9 0 62.15 0 62.15-28.95 52.8-7.9 48.1-7.9 38.7-28.95 38.7 0ZM90.4 0.6L90.4 0.6Q86.5 0.6 83.45-0.83 80.4-2.25 78.27-4.73 76.15-7.2 75.02-10.5 73.9-13.8 73.9-17.55L73.9-17.55Q73.9-22.7 75.87-26.78 77.85-30.85 81.55-33.23 85.25-35.6 90.4-35.6L90.4-35.6Q94.25-35.6 97.32-34.2 100.4-32.8 102.55-30.3 104.7-27.8 105.82-24.55 106.95-21.3 106.95-17.55L106.95-17.55Q106.95-13.8 105.82-10.5 104.7-7.2 102.55-4.73 100.4-2.25 97.35-0.83 94.3 0.6 90.4 0.6ZM90.4-3.5L90.4-3.5Q94.25-3.5 96.85-5.35 99.45-7.2 100.77-10.38 102.1-13.55 102.1-17.55L102.1-17.55Q102.1-20.25 101.3-22.75 100.5-25.25 99-27.23 97.5-29.2 95.32-30.35 93.15-31.5 90.4-31.5L90.4-31.5Q86.75-31.5 84.12-29.65 81.5-27.8 80.12-24.65 78.75-21.5 78.75-17.55L78.75-17.55Q78.75-14.85 79.52-12.33 80.3-9.8 81.8-7.8 83.3-5.8 85.47-4.65 87.65-3.5 90.4-3.5ZM128.44 0.6L128.44 0.6Q124.54 0.6 121.49-0.83 118.44-2.25 116.32-4.73 114.19-7.2 113.07-10.5 111.94-13.8 111.94-17.55L111.94-17.55Q111.94-22.7 113.92-26.78 115.89-30.85 119.59-33.23 123.29-35.6 128.44-35.6L128.44-35.6Q132.29-35.6 135.37-34.2 138.44-32.8 140.59-30.3 142.74-27.8 143.87-24.55 144.99-21.3 144.99-17.55L144.99-17.55Q144.99-13.8 143.87-10.5 142.74-7.2 140.59-4.73 138.44-2.25 135.39-0.83 132.34 0.6 128.44 0.6ZM128.44-3.5L128.44-3.5Q132.29-3.5 134.89-5.35 137.49-7.2 138.82-10.38 140.14-13.55 140.14-17.55L140.14-17.55Q140.14-20.25 139.34-22.75 138.54-25.25 137.04-27.23 135.54-29.2 133.37-30.35 131.19-31.5 128.44-31.5L128.44-31.5Q124.79-31.5 122.17-29.65 119.54-27.8 118.17-24.65 116.79-21.5 116.79-17.55L116.79-17.55Q116.79-14.85 117.57-12.33 118.34-9.8 119.84-7.8 121.34-5.8 123.52-4.65 125.69-3.5 128.44-3.5ZM160.69 0.6L160.69 0.6Q157.04 0.6 154.04-0.38 151.04-1.35 148.99-2.95L148.99-2.95 151.39-6.95Q153.19-5.45 155.44-4.5 157.69-3.55 160.69-3.55L160.69-3.55Q164.29-3.55 166.39-5.05 168.49-6.55 168.49-9.1L168.49-9.1Q168.49-10.55 167.89-11.68 167.29-12.8 165.57-13.88 163.84-14.95 160.49-16.2L160.49-16.2Q156.89-17.6 154.74-19.03 152.59-20.45 151.67-22.28 150.74-24.1 150.74-26.6L150.74-26.6Q150.74-29.1 152.12-31.13 153.49-33.15 156.17-34.38 158.84-35.6 162.64-35.6L162.64-35.6Q165.74-35.6 168.22-34.98 170.69-34.35 173.04-33.2L173.04-33.2 171.29-29.15Q169.59-30.15 167.32-30.83 165.04-31.5 162.54-31.5L162.54-31.5Q159.24-31.5 157.34-30.2 155.44-28.9 155.44-26.85L155.44-26.85Q155.44-25.55 155.99-24.55 156.54-23.55 158.17-22.6 159.79-21.65 163.04-20.45L163.04-20.45Q166.94-19 169.22-17.4 171.49-15.8 172.44-13.93 173.39-12.05 173.39-9.65L173.39-9.65Q173.39-6.4 171.77-4.1 170.14-1.8 167.27-0.6 164.39 0.6 160.69 0.6Z" opacity="1" transform="matrix(1,0,0,1,0,0)" fill="#0074d9" class="wordmark-text-0" data-fill-palette-color="primary" id="text-0"></path></svg></g></svg></g><g transform="matrix(1,0,0,1,0,109.13461264526603)"><svg viewBox="0 0 232.20979200000002 27.682873192149263" height="27.682873192149263" width="232.20979200000002"><g transform="matrix(1,0,0,1,0,0)"><svg width="232.20979200000002" viewBox="3.5 -38 412.65 49.199999999999996" height="27.682873192149263" data-palette-color="#39cccc"><path d="M10.5-28.95L3.5-28.95 3.5-35.6 10.5-35.6 10.5-28.95ZM10.25 0L3.75 0 3.75-24.9 10.25-24.9 10.25 0ZM24.1 0L17.7 0 17.7-24.9 23.5-24.9 23.62-21.63Q24.6-23.13 26.35-24.31 28.1-25.5 30.95-25.5L30.95-25.5Q34.75-25.5 36.6-23.1 38.45-20.7 38.45-16.45L38.45-16.45 38.45 0 32.05 0 32.05-15.9Q32.05-17.98 31.17-19.26 30.3-20.55 28.5-20.55L28.5-20.55Q26.75-20.55 25.42-19.26 24.1-17.98 24.1-15.9L24.1-15.9 24.1 0ZM53.85 0.75L53.85 0.75Q49.62 0.75 48.13-1.45 46.65-3.65 46.65-8.1L46.65-8.1 46.65-19.65 43.4-19.65 43.4-24.9 46.9-24.9 47.25-30.15 52.7-32.5 52.7-24.9 58.85-24.9 58.85-19.65 52.7-19.65 52.7-8.25Q52.7-6.08 53.31-5.24 53.92-4.4 55-4.4L55-4.4Q56.1-4.4 57.32-4.98 58.55-5.55 59.25-6.15L59.25-6.15 60.45-1.1Q59.67-0.55 58.43-0.14 57.2 0.28 55.93 0.51 54.67 0.75 53.85 0.75ZM74.69 0.65L74.69 0.65Q70.49 0.65 67.92-1.11 65.34-2.88 64.17-5.79 62.99-8.7 62.99-12.15L62.99-12.15Q62.99-15.78 64.33-18.81 65.67-21.85 68.26-23.68 70.84-25.5 74.59-25.5L74.59-25.5Q80.19-25.5 82.42-22.26 84.64-19.03 84.64-13.1L84.64-13.1Q84.64-12.58 84.62-11.78 84.59-10.98 84.54-10.4L84.54-10.4 69.54-10.4Q69.69-7.45 71.21-5.78 72.72-4.1 75.74-4.1L75.74-4.1Q77.29-4.1 79.07-4.79 80.84-5.48 81.69-6.45L81.69-6.45 83.69-1.7Q82.69-1.03 80.53-0.19 78.37 0.65 74.69 0.65ZM69.49-14.3L69.49-14.3 78.29-14.3Q78.29-16.93 77.83-18.31 77.37-19.7 76.57-20.23 75.77-20.75 74.74-20.75L74.74-20.75Q72.19-20.75 70.92-18.86 69.64-16.98 69.49-14.3ZM91.19 9L93.99 4.3Q94.89 4.85 96.18 5.3 97.47 5.75 99.19 5.75L99.19 5.75Q102.39 5.75 103.99 4.09 105.59 2.43 105.59-1.2L105.59-1.2 105.59-5.1Q105.24-3.83 104.49-2.58 103.74-1.33 102.43-0.51 101.12 0.3 99.09 0.3L99.09 0.3Q96.27 0.3 93.98-0.99 91.69-2.27 90.34-5.08 88.99-7.88 88.99-12.4L88.99-12.4Q88.99-17 90.33-19.89 91.67-22.78 93.93-24.14 96.19-25.5 98.94-25.5L98.94-25.5Q102.02-25.5 103.64-23.95 105.27-22.4 105.59-20.6L105.59-20.6 106.29-24.9 111.19-24.9 111.19-1.2Q111.19 4.53 108.3 7.86 105.42 11.2 99.79 11.2L99.79 11.2Q96.77 11.2 94.54 10.44 92.32 9.68 91.19 9L91.19 9ZM100.34-4.6L100.34-4.6Q102.52-4.6 103.75-6.66 104.99-8.72 104.99-12.5L104.99-12.5Q104.99-16.07 103.92-18.26 102.84-20.45 100.54-20.45L100.54-20.45Q99.27-20.45 98.1-19.69 96.94-18.93 96.19-17.18 95.44-15.43 95.44-12.45L95.44-12.45Q95.44-8.4 96.83-6.5 98.22-4.6 100.34-4.6ZM124.44 0L118.19 0 118.19-24.9 123.84-24.9 124.14-20.5Q124.54-21.48 125.38-22.58 126.21-23.68 127.7-24.44 129.19-25.2 131.54-25.2L131.54-25.2Q132.26-25.2 132.81-25.1 133.36-25 133.84-24.8L133.84-24.8 132.44-18.25Q131.64-19.05 129.99-19.05L129.99-19.05Q128.06-19.05 126.84-18.26 125.61-17.48 125.03-16.5 124.44-15.53 124.44-15L124.44-15 124.44 0ZM142.54 0.7L142.54 0.7Q140.24 0.7 138.72-0.33 137.21-1.35 136.47-3.05 135.74-4.75 135.74-6.8L135.74-6.8Q135.74-7.95 136.32-9.33 136.91-10.7 138.41-11.95 139.91-13.2 142.64-14 145.36-14.8 149.64-14.8L149.64-14.8 149.64-15.95Q149.64-17.8 148.75-19.03 147.86-20.25 145.19-20.25L145.19-20.25Q143.24-20.25 141.37-19.59 139.51-18.93 138.64-17.95L138.64-17.95 136.64-22.75Q138.14-23.78 140.65-24.64 143.16-25.5 146.24-25.5L146.24-25.5Q149.94-25.5 151.99-24.38 154.04-23.25 154.86-21.19 155.69-19.13 155.69-16.35L155.69-16.35 155.69 0 150.34 0 149.89-3.55Q147.29 0.7 142.54 0.7ZM145.19-4.1L145.19-4.1Q146.31-4.1 147.6-5.01 148.89-5.93 149.64-7.35L149.64-7.35 149.64-10.9Q149.39-10.95 149.1-10.95 148.81-10.95 148.44-10.95L148.44-10.95Q147.06-10.95 145.55-10.64 144.04-10.33 142.99-9.55 141.94-8.78 141.94-7.4L141.94-7.4Q141.94-5.6 142.74-4.85 143.54-4.1 145.19-4.1ZM170.58 0.75L170.58 0.75Q166.36 0.75 164.87-1.45 163.38-3.65 163.38-8.1L163.38-8.1 163.38-19.65 160.13-19.65 160.13-24.9 163.63-24.9 163.98-30.15 169.43-32.5 169.43-24.9 175.58-24.9 175.58-19.65 169.43-19.65 169.43-8.25Q169.43-6.08 170.05-5.24 170.66-4.4 171.73-4.4L171.73-4.4Q172.83-4.4 174.06-4.98 175.28-5.55 175.98-6.15L175.98-6.15 177.18-1.1Q176.41-0.55 175.17-0.14 173.93 0.28 172.67 0.51 171.41 0.75 170.58 0.75ZM191.43 0.65L191.43 0.65Q187.23 0.65 184.66-1.11 182.08-2.88 180.91-5.79 179.73-8.7 179.73-12.15L179.73-12.15Q179.73-15.78 181.07-18.81 182.41-21.85 184.99-23.68 187.58-25.5 191.33-25.5L191.33-25.5Q196.93-25.5 199.16-22.26 201.38-19.03 201.38-13.1L201.38-13.1Q201.38-12.58 201.36-11.78 201.33-10.98 201.28-10.4L201.28-10.4 186.28-10.4Q186.43-7.45 187.94-5.78 189.46-4.1 192.48-4.1L192.48-4.1Q194.03-4.1 195.81-4.79 197.58-5.48 198.43-6.45L198.43-6.45 200.43-1.7Q199.43-1.03 197.27-0.19 195.11 0.65 191.43 0.65ZM186.23-14.3L186.23-14.3 195.03-14.3Q195.03-16.93 194.57-18.31 194.11-19.7 193.31-20.23 192.51-20.75 191.48-20.75L191.48-20.75Q188.93-20.75 187.66-18.86 186.38-16.98 186.23-14.3ZM215.63 0.7L215.63 0.7Q212.6 0.7 210.38-0.93 208.15-2.55 206.94-5.5 205.73-8.45 205.73-12.4L205.73-12.4Q205.73-18.55 208.24-22.03 210.75-25.5 215.73-25.5L215.73-25.5Q218.28-25.5 220.04-24.24 221.8-22.98 222.33-20.6L222.33-20.6 221.88-24.25 221.88-38 227.78-38 227.78 0 222.33 0 222.33-5.1Q221.65-2.53 219.95-0.91 218.25 0.7 215.63 0.7ZM217.08-4.25L217.08-4.25Q218.88-4.25 220.3-6.14 221.73-8.03 221.73-12.3L221.73-12.3Q221.73-16.2 220.63-18.32 219.53-20.45 217.23-20.45L217.23-20.45Q216.05-20.45 214.89-19.73 213.73-19 212.95-17.24 212.18-15.48 212.18-12.4L212.18-12.4Q212.18-8.28 213.6-6.26 215.03-4.25 217.08-4.25ZM251.67 0.45L251.67 0.45Q248.95 0.45 247.21-0.06 245.47-0.58 244.51-1.24 243.55-1.9 243.17-2.35L243.17-2.35 245.02-7.1Q246.12-6.2 247.84-5.33 249.55-4.45 251.82-4.45L251.82-4.45Q253.6-4.45 254.31-5.18 255.02-5.9 255.02-6.75L255.02-6.75Q255.02-7.93 253.4-8.88 251.77-9.83 249.62-10.75L249.62-10.75Q248.35-11.3 246.92-12.15 245.5-13 244.49-14.4 243.47-15.8 243.47-18L243.47-18Q243.47-21.38 245.94-23.39 248.4-25.4 252.92-25.4L252.92-25.4Q255.82-25.4 257.84-24.54 259.85-23.68 260.52-23L260.52-23 258.82-18.5Q257.85-19.25 256.35-19.93 254.85-20.6 253.12-20.6L253.12-20.6Q251.22-20.6 250.47-20.1 249.72-19.6 249.72-18.5L249.72-18.5Q249.72-17.28 251.06-16.49 252.4-15.7 254.27-14.95L254.27-14.95Q257.4-13.73 259.31-11.94 261.22-10.15 261.22-7.4L261.22-7.4Q261.22-5.35 260.27-3.56 259.32-1.78 257.22-0.66 255.12 0.45 251.67 0.45ZM276.62 0.5L276.62 0.5Q271.12 0.5 268.12-2.95 265.12-6.4 265.12-12.5L265.12-12.5Q265.12-18.65 268.22-22.08 271.32-25.5 276.82-25.5L276.82-25.5Q282.35-25.5 285.23-21.96 288.12-18.43 288.12-12.5L288.12-12.5Q288.12-6.58 285.13-3.04 282.15 0.5 276.62 0.5ZM276.72-4.5L276.72-4.5Q281.47-4.5 281.47-12.5L281.47-12.5Q281.47-20.55 276.72-20.55L276.72-20.55Q274.37-20.55 273.07-18.69 271.77-16.82 271.77-12.5L271.77-12.5Q271.77-8.2 273.07-6.35 274.37-4.5 276.72-4.5ZM300.12 0L294.02 0 294.02-38 300.12-38 300.12 0ZM314.77 0.6L314.77 0.6Q310.99 0.6 309.2-1.81 307.42-4.23 307.42-8.45L307.42-8.45 307.42-24.9 313.67-24.9 313.67-9Q313.67-6.95 314.42-5.65 315.17-4.35 316.97-4.35L316.97-4.35Q318.74-4.35 319.93-5.65 321.12-6.95 321.12-9L321.12-9 321.12-24.9 327.37-24.9 327.37 0 321.72 0 321.59-3.23Q320.67-1.75 319.08-0.58 317.49 0.6 314.77 0.6ZM342.96 0.75L342.96 0.75Q338.74 0.75 337.25-1.45 335.76-3.65 335.76-8.1L335.76-8.1 335.76-19.65 332.51-19.65 332.51-24.9 336.01-24.9 336.36-30.15 341.81-32.5 341.81-24.9 347.96-24.9 347.96-19.65 341.81-19.65 341.81-8.25Q341.81-6.08 342.43-5.24 343.04-4.4 344.11-4.4L344.11-4.4Q345.21-4.4 346.44-4.98 347.66-5.55 348.36-6.15L348.36-6.15 349.56-1.1Q348.79-0.55 347.55-0.14 346.31 0.28 345.05 0.51 343.79 0.75 342.96 0.75ZM361.01-28.95L354.01-28.95 354.01-35.6 361.01-35.6 361.01-28.95ZM360.76 0L354.26 0 354.26-24.9 360.76-24.9 360.76 0ZM378.11 0.5L378.11 0.5Q372.61 0.5 369.61-2.95 366.61-6.4 366.61-12.5L366.61-12.5Q366.61-18.65 369.71-22.08 372.81-25.5 378.31-25.5L378.31-25.5Q383.83-25.5 386.72-21.96 389.61-18.43 389.61-12.5L389.61-12.5Q389.61-6.58 386.62-3.04 383.63 0.5 378.11 0.5ZM378.21-4.5L378.21-4.5Q382.96-4.5 382.96-12.5L382.96-12.5Q382.96-20.55 378.21-20.55L378.21-20.55Q375.86-20.55 374.56-18.69 373.26-16.82 373.26-12.5L373.26-12.5Q373.26-8.2 374.56-6.35 375.86-4.5 378.21-4.5ZM401.81 0L395.4 0 395.4-24.9 401.2-24.9 401.33-21.63Q402.31-23.13 404.06-24.31 405.81-25.5 408.65-25.5L408.65-25.5Q412.45-25.5 414.31-23.1 416.15-20.7 416.15-16.45L416.15-16.45 416.15 0 409.75 0 409.75-15.9Q409.75-17.98 408.88-19.26 408-20.55 406.2-20.55L406.2-20.55Q404.45-20.55 403.13-19.26 401.81-17.98 401.81-15.9L401.81-15.9 401.81 0Z" opacity="1" transform="matrix(1,0,0,1,0,0)" fill="#39cccc" class="slogan-text-1" data-fill-palette-color="secondary" id="text-1"></path></svg></g></svg></g></svg></g></svg></g><g><svg viewBox="0 0 245.65351679999995 245.65351679999992" height="245.65351679999992" width="245.65351679999995"><g><svg xmlns="http://www.w3.org/2000/svg" xmlns:xlink="http://www.w3.org/1999/xlink" xmlns:serif="http://www.serif.com/" viewBox="0 0.984 64 63.99999999999999" version="1.1" xml:space="preserve" style="" x="0" y="0" fill-rule="evenodd" clip-rule="evenodd" stroke-linejoin="round" stroke-miterlimit="1.41421" height="245.65351679999992" width="245.65351679999995" class="icon-icon-0" data-fill-palette-color="accent" id="icon-0"><path d="M26 61.984H10C9.804 61.962 9.747 61.972 9.566 61.885A1.01 1.01 0 0 1 9.025 61.206C9.008 61.134 9.008 61.058 9 60.984V59.984H4C3.491 59.972 3.039 59.55 3.003 59.056 2.964 58.529 3.397 58.012 3.952 57.985L4 57.984H9V53.984H4C3.403 53.969 2.89 53.373 3.024 52.768 3.121 52.328 3.54 51.995 4 51.984H9V47.984H4C3.353 47.968 2.824 47.266 3.065 46.629 3.208 46.253 3.597 45.994 4 45.984H9V44.984C9.025 44.759 9.08 44.534 9.218 44.36 9.312 44.243 9.431 44.148 9.566 44.083 9.747 43.996 9.804 44.006 10 43.984H11V36.984C11.019 36.786 11.06 36.591 11.169 36.428 11.205 36.374 11.251 36.327 11.293 36.277L21 26.57V23.984H17V24.984A1.07 1.07 0 0 1 16.707 25.691L10.707 31.691A3.04 3.04 0 0 1 10.703 34.285C10.054 35.632 8.319 36.366 6.849 35.755A3.06 3.06 0 0 1 5.029 33.402 3.05 3.05 0 0 1 5.917 30.825 3.04 3.04 0 0 1 7.981 29.984H8.019C8.459 29.988 8.892 30.096 9.285 30.285L9.293 30.277 15 24.57V23.984H4C3.804 23.962 3.747 23.972 3.566 23.885A1.02 1.02 0 0 1 3.025 23.206C3.008 23.134 3.008 23.058 3 22.984V4.984C3.017 4.835 3.035 4.684 3.099 4.55 3.197 4.346 3.365 4.18 3.566 4.083 3.747 3.996 3.804 4.006 4 3.984H60L60.223 4.009C60.436 4.084 60.644 4.187 60.782 4.36 60.875 4.478 60.941 4.615 60.975 4.761 60.992 4.834 60.992 4.91 61 4.984V22.984C60.992 23.058 60.992 23.134 60.975 23.206 60.908 23.5 60.702 23.756 60.434 23.885 60.253 23.972 60.196 23.962 60 23.984H49V24.57L54.707 30.277 54.709 30.278A3 3 0 0 1 55.961 29.984H56.019C57.134 29.995 58.208 30.672 58.695 31.666 59.092 32.476 59.097 33.469 58.703 34.285 58.054 35.632 56.318 36.366 54.849 35.755A3.06 3.06 0 0 1 53.029 33.402 3.04 3.04 0 0 1 53.297 31.695L53.293 31.691 47.293 25.691A1.06 1.06 0 0 1 47 24.984V23.984H43V26.57L52.707 36.277 52.831 36.428C52.913 36.581 52.947 36.617 52.981 36.789 52.994 36.853 52.994 36.919 53 36.984V43.984H54L54.223 44.009C54.436 44.084 54.644 44.187 54.782 44.36 54.875 44.478 54.941 44.615 54.975 44.761 54.992 44.834 54.992 44.91 55 44.984V45.984H60L60.048 45.985C60.7 46.032 61.183 46.772 60.917 47.383A1.03 1.03 0 0 1 60 47.984H55V51.984H60L60.048 51.985C60.556 52.022 60.988 52.465 61 52.96 61.012 53.488 60.555 53.97 60 53.984H55V57.984H60L60.048 57.985C60.586 58.024 61.036 58.528 60.997 59.056 60.961 59.554 60.503 59.972 60 59.984H55V60.984C54.978 61.18 54.988 61.237 54.901 61.418A1.02 1.02 0 0 1 54.223 61.959C54.15 61.975 54.074 61.976 54 61.984H38A1.4 1.4 0 0 1 37.566 61.885 1 1 0 0 1 37.099 61.418C37.012 61.237 37.022 61.18 37 60.984V59.984H27V60.984C26.975 61.209 26.92 61.434 26.782 61.607A1 1 0 0 1 26.434 61.885C26.253 61.972 26.196 61.962 26 61.984M27 53.984V57.984H37V53.984zM27 47.984V51.984H37V47.984zM35 23.984H29V28.984C28.981 29.182 28.94 29.377 28.831 29.539 28.795 29.594 28.749 29.641 28.707 29.691L19 39.398V43.984H23V40.984C23.001 40.949 23 40.94 23.003 40.904 23.042 40.419 23.47 39.994 23.98 39.984L24.06 39.986C24.541 40.024 24.958 40.421 24.997 40.904 25 40.94 24.999 40.949 25 40.984V43.984H26L26.223 44.009C26.436 44.084 26.644 44.187 26.782 44.36 26.875 44.478 26.941 44.615 26.975 44.761 26.992 44.834 26.992 44.91 27 44.984V45.984H37V44.984C37.022 44.788 37.012 44.731 37.099 44.55 37.228 44.282 37.484 44.076 37.777 44.009 37.85 43.992 37.926 43.992 38 43.984H39V40.984C39.001 40.949 39 40.94 39.003 40.904 39.042 40.419 39.47 39.994 39.98 39.984L40.06 39.986C40.542 40.024 40.959 40.424 40.997 40.904 41 40.94 40.999 40.949 41 40.984V43.984H45V39.398L35.293 29.691 35.169 29.539C35.087 29.387 35.053 29.351 35.019 29.179 35.006 29.115 35.006 29.049 35 28.984zM27 23.984H23V26.984C22.981 27.182 22.94 27.377 22.831 27.539 22.795 27.594 22.749 27.641 22.707 27.691L13 37.398V43.984H17V38.984C17.019 38.786 17.06 38.591 17.169 38.428 17.205 38.374 17.251 38.327 17.293 38.277L27 28.57zM41 23.984H37V28.57L46.707 38.277 46.831 38.428C46.862 38.486 46.899 38.541 46.924 38.601 46.991 38.764 46.983 38.812 47 38.984V43.984H51V37.398L41.293 27.691 41.169 27.539C41.087 27.387 41.053 27.351 41.019 27.179 41.006 27.115 41.006 27.049 41 26.984zM7.993 31.984C7.333 31.99 6.793 32.774 7.096 33.411 7.312 33.867 7.906 34.103 8.377 33.91 8.893 33.699 9.154 33.012 8.88 32.508A1.02 1.02 0 0 0 8.02 31.984zM55.993 31.984C55.335 31.99 54.795 32.767 55.093 33.405 55.307 33.864 55.904 34.104 56.377 33.91 56.893 33.7 57.154 33.013 56.88 32.508A1.02 1.02 0 0 0 56.02 31.984zM52 7.984H12C11.926 7.992 11.85 7.992 11.777 8.009A1.01 1.01 0 0 0 11.099 8.55C11.012 8.731 11.022 8.788 11 8.984V9.984H9.972C9.422 10 8.972 10.512 9.002 11.04 9.03 11.547 9.492 11.977 10 11.984H11V15.984H9.972C9.288 16.004 8.831 16.776 9.076 17.367 9.226 17.729 9.605 17.978 10 17.984H11V18.984C11.008 19.058 11.008 19.134 11.025 19.206 11.092 19.499 11.299 19.756 11.566 19.885 11.747 19.972 11.804 19.962 12 19.984H52C52.196 19.962 52.253 19.972 52.434 19.885 52.635 19.788 52.803 19.621 52.901 19.418 52.965 19.284 52.983 19.133 53 18.984V17.984H54C54.39 17.978 54.773 17.73 54.924 17.367 55.164 16.787 54.75 16.097 54.168 15.998 54.129 15.991 54.114 15.988 54.028 15.984H53V11.984H54C54.39 11.978 54.773 11.73 54.924 11.367 55.164 10.787 54.75 10.097 54.168 9.998 54.129 9.991 54.114 9.988 54.028 9.984H53V8.984C52.992 8.91 52.992 8.834 52.975 8.761A1 1 0 0 0 52.623 8.202 1.3 1.3 0 0 0 52.223 8.009z" fill="#39cccc" data-fill-palette-color="accent"></path></svg></g></svg></g></svg></g></svg></g><defs></defs></svg><rect width="395.52" height="146.56295369330581" fill="none" stroke="none" visibility="hidden"></rect></g></svg></g></svg>